HIERARCHY
ROOT Hips
{
	OFFSET -0.001795 -0.223333 0.028219
	CHANNELS 6 Xposition Yposition Zposition Zrotation Yrotation Xrotation 
	JOINT LeftUpLeg
	{
		OFFSET 0.069520 -0.091406 -0.006815
		CHANNELS 3 Zrotation Yrotation Xrotation
		JOINT LeftLeg
		{
			OFFSET 0.034277 -0.375199 -0.004496
			CHANNELS 3 Zrotation Yrotation Xrotation
			JOINT LeftFoot
			{
				OFFSET -0.013596 -0.397961 -0.043693
				CHANNELS 3 Zrotation Yrotation Xrotation
				JOINT LeftToe
				{
					OFFSET 0.026358 -0.055791 0.119288
					CHANNELS 3 Zrotation Yrotation Xrotation
					End Site
					{
						OFFSET 0.000000 0.000000 0.000000
					}
				}
			}
		}
	}
	JOINT RightUpLeg
	{
		OFFSET -0.067670 -0.090522 -0.004320
		CHANNELS 3 Zrotation Yrotation Xrotation
		JOINT RightLeg
		{
			OFFSET -0.038290 -0.382569 -0.008850
			CHANNELS 3 Zrotation Yrotation Xrotation
			JOINT RightFoot
			{
				OFFSET 0.015774 -0.398415 -0.042312
				CHANNELS 3 Zrotation Yrotation Xrotation
				JOINT RightToe
				{
					OFFSET -0.025372 -0.048144 0.123348
					CHANNELS 3 Zrotation Yrotation Xrotation
					End Site
					{
						OFFSET 0.000000 0.000000 0.000000
					}
				}
			}
		}
	}
	JOINT Spine
	{
		OFFSET -0.002533 0.108963 -0.026696
		CHANNELS 3 Zrotation Yrotation Xrotation
		JOINT Spine1
		{
			OFFSET 0.005487 0.135180 0.001092
			CHANNELS 3 Zrotation Yrotation Xrotation
			JOINT Spine2
			{
				OFFSET 0.001457 0.052922 0.025425
				CHANNELS 3 Zrotation Yrotation Xrotation
				JOINT Neck
				{
					OFFSET -0.002778 0.213870 -0.042857
					CHANNELS 3 Zrotation Yrotation Xrotation
					JOINT Head
					{
						OFFSET 0.005152 0.064970 0.051349
						CHANNELS 3 Zrotation Yrotation Xrotation
						End Site
						{
							OFFSET 0.000000 0.000000 0.000000
						}
					}
				}
				JOINT LeftShoulder
				{
					OFFSET 0.078845 0.121749 -0.034090
					CHANNELS 3 Zrotation Yrotation Xrotation
					JOINT LeftArm
					{
						OFFSET 0.090977 0.030469 -0.008868
						CHANNELS 3 Zrotation Yrotation Xrotation
						JOINT LeftForeArm
						{
							OFFSET 0.259612 -0.012772 -0.027456
							CHANNELS 3 Zrotation Yrotation Xrotation
							JOINT LeftHand
							{
								OFFSET 0.249234 0.008986 -0.001171
								CHANNELS 3 Zrotation Yrotation Xrotation
								End Site
								{
									OFFSET 0.000000 0.000000 0.000000
								}
							}
						}
					}
				}
				JOINT RightShoulder
				{
					OFFSET -0.081759 0.118833 -0.038615
					CHANNELS 3 Zrotation Yrotation Xrotation
					JOINT RightArm
					{
						OFFSET -0.096012 0.032551 -0.009143
						CHANNELS 3 Zrotation Yrotation Xrotation
						JOINT RightForeArm
						{
							OFFSET -0.253742 -0.013329 -0.021401
							CHANNELS 3 Zrotation Yrotation Xrotation
							JOINT RightHand
							{
								OFFSET -0.255298 0.007772 -0.005559
								CHANNELS 3 Zrotation Yrotation Xrotation
								End Site
								{
									OFFSET 0.000000 0.000000 0.000000
								}
							}
						}
					}
				}
			}
		}
	}
}
MOTION
Frames: 18
Frame Time: 0.050000
-0.000616 0.959721 0.111368 -1.724617 0.766905 2.787365 4.720887 0.136764 4.864660 0.726701 -0.005062 -1.802893 3.881091 11.057128 12.487067 0.000000 0.000000 0.000000 -1.404705 -0.208711 2.779660 -0.916690 0.201683 2.194241 -4.195721 -13.039913 13.815388 0.000000 0.000000 0.000000 -4.976091 0.069727 -5.339699 7.102701 -0.927831 -25.952393 -0.165503 -6.830331 30.971518 -3.393066 2.534384 -30.259593 0.000000 0.000000 0.000000 18.175331 -19.552403 2.837713 11.040395 -45.335643 -5.433485 88.506602 -2.658421 -0.729007 0.000000 0.000000 0.000000 -33.473227 27.212202 2.670110 -0.887664 41.714317 -4.287401 -93.988218 2.064117 -3.223341 0.000000 0.000000 0.000000 
0.001751 0.959590 0.112283 -1.762936 0.668411 2.774725 4.732640 0.148290 5.081362 0.669937 0.009694 -2.047679 3.987568 11.273696 12.799263 0.000000 0.000000 0.000000 -1.494522 -0.185781 2.579955 -0.918262 0.217958 2.534505 -4.338121 -13.270327 13.563542 0.000000 0.000000 0.000000 -4.870135 0.073488 -5.395260 6.929110 -0.871888 -26.161975 -0.218583 -6.657290 31.197402 -3.282403 2.478509 -29.632404 0.000000 0.000000 0.000000 18.666737 -19.357820 2.700460 10.698353 -45.211326 -5.308439 89.399499 -2.085333 -0.201965 0.000000 0.000000 0.000000 -33.992478 26.502544 2.529785 -1.160483 41.650866 -4.345175 -94.884913 1.383547 -2.561918 0.000000 0.000000 0.000000 
0.004201 0.959269 0.113269 -1.673718 0.744968 2.556289 4.648899 0.168495 5.356522 0.638891 0.015918 -2.133578 3.989744 11.239370 12.556595 0.000000 0.000000 0.000000 -1.686553 -0.188304 2.707101 -0.945637 0.228579 2.681832 -4.589247 -13.717265 13.618611 0.000000 0.000000 0.000000 -4.895896 0.068245 -5.298577 6.727573 -0.823441 -26.214547 -0.264176 -6.602760 31.395942 -3.251334 2.465115 -29.103754 0.000000 0.000000 0.000000 18.612929 -18.866373 2.622288 10.803858 -45.526276 -5.418246 90.692758 -1.856479 -0.038259 0.000000 0.000000 0.000000 -34.113625 25.788020 2.466365 -1.816333 41.887690 -4.563534 -95.812986 0.424156 -1.586464 0.000000 0.000000 0.000000 
0.006486 0.958873 0.113976 -1.580516 0.575682 2.413265 4.526922 0.197284 5.671323 0.434738 0.044761 -2.424171 4.195906 11.592961 12.808373 0.000000 0.000000 0.000000 -2.002329 -0.179012 2.794604 -0.988682 0.238644 2.772151 -4.539237 -13.645861 13.594999 0.000000 0.000000 0.000000 -4.848579 0.068520 -5.211514 6.524825 -0.752701 -26.531545 -0.276561 -6.286635 31.625763 -3.455394 2.606826 -28.771480 0.000000 0.000000 0.000000 18.916383 -18.566612 2.521351 10.288270 -45.750829 -5.326234 91.510848 -1.860411 -0.051109 0.000000 0.000000 0.000000 -34.315874 25.360603 2.368004 -1.544711 41.679899 -4.418426 -95.991601 0.508256 -1.604657 0.000000 0.000000 0.000000 
0.008392 0.958432 0.114135 -1.506107 0.269221 2.319258 4.426965 0.219042 5.830066 0.440160 0.043409 -2.408624 4.344007 11.802374 12.844225 0.000000 0.000000 0.000000 -2.218204 -0.150823 2.608382 -0.962825 0.254268 3.166910 -4.569905 -13.725522 13.523926 0.000000 0.000000 0.000000 -4.795145 0.071255 -4.869621 6.422205 -0.710458 -26.795338 -0.266328 -6.017428 31.548015 -3.486992 2.641171 -29.008528 0.000000 0.000000 0.000000 18.753039 -17.876073 2.444562 9.783217 -46.207646 -5.267383 91.816095 -2.059650 -0.205885 0.000000 0.000000 0.000000 -34.249565 24.873415 2.374336 -1.146481 41.831322 -4.319546 -95.772046 0.745735 -1.802904 0.000000 0.000000 0.000000 
0.009781 0.958355 0.113694 -1.489764 0.058758 2.284473 4.283748 0.234667 5.861339 0.352163 0.053401 -2.476585 4.409827 11.877234 12.790992 0.000000 0.000000 0.000000 -2.420112 -0.126656 2.451928 -0.902350 0.247821 3.201749 -4.517357 -13.670358 13.645934 0.000000 0.000000 0.000000 -4.733349 0.074099 -4.428095 6.333402 -0.682287 -26.918472 -0.142790 -5.740583 31.196846 -3.832077 2.859038 -28.848913 0.000000 0.000000 0.000000 18.309377 -17.531772 2.507220 9.470135 -46.833731 -5.315076 91.930654 -3.245817 -1.358292 0.000000 0.000000 0.000000 -34.191939 24.546639 2.380415 -0.288826 42.370397 -4.114774 -95.718279 1.680936 -2.612245 0.000000 0.000000 0.000000 
0.010597 0.958637 0.112942 -1.421348 -0.157510 2.174743 4.195479 0.261573 6.150403 0.479441 0.050479 -2.695107 4.354268 11.801549 12.966520 0.000000 0.000000 0.000000 -2.524361 -0.099435 2.183766 -0.967911 0.277627 3.629302 -4.318946 -13.321791 13.485079 0.000000 0.000000 0.000000 -4.667110 0.074960 -3.885573 6.330131 -0.644336 -27.408311 -0.200719 -5.611645 31.216321 -4.010930 2.955183 -28.640702 0.000000 0.000000 0.000000 17.778585 -17.044103 2.514113 8.343180 -47.284664 -5.047896 91.743968 -4.962945 -2.914107 0.000000 0.000000 0.000000 -34.043509 24.140092 2.406393 0.672629 43.305905 -3.966140 -94.855425 3.168674 -4.004200 0.000000 0.000000 0.000000 
0.010945 0.958736 0.112180 -1.345960 -0.060429 2.225154 4.241951 0.239140 5.834987 0.285074 0.058178 -2.450040 4.377043 11.822753 12.837266 0.000000 0.000000 0.000000 -2.510299 -0.060082 1.672548 -0.957575 0.290589 3.930369 -4.462986 -13.533651 13.244170 0.000000 0.000000 0.000000 -4.717722 0.074105 -3.761079 6.307096 -0.638723 -27.404276 -0.251554 -5.600627 31.209525 -4.482888 3.231846 -28.381422 0.000000 0.000000 0.000000 17.279010 -16.612041 2.536636 7.477032 -47.963181 -4.904192 91.090860 -6.360794 -4.173602 0.000000 0.000000 0.000000 -33.669058 23.740287 2.457195 1.682694 44.131256 -3.751260 -94.853013 4.058458 -4.766366 0.000000 0.000000 0.000000 
0.010813 0.958618 0.111458 -1.214092 -0.018047 2.190123 4.243009 0.242794 5.901374 0.146669 0.076954 -2.638126 4.313682 11.734897 12.871094 0.000000 0.000000 0.000000 -2.650589 -0.040578 1.493291 -0.812043 0.290423 4.359648 -4.476484 -13.531370 13.076701 0.000000 0.000000 0.000000 -4.785093 0.071935 -3.585745 6.319542 -0.646901 -27.325528 -0.205213 -5.642842 31.191098 -4.804287 3.411644 -28.071761 0.000000 0.000000 0.000000 16.503024 -16.337390 2.621954 6.484810 -48.291791 -4.657793 91.046656 -7.734523 -5.422898 0.000000 0.000000 0.000000 -33.132659 23.355590 2.546530 2.760301 44.753509 -3.499885 -95.016038 5.217605 -5.879719 0.000000 0.000000 0.000000 
0.010361 0.958177 0.110687 -1.218821 0.169266 1.877505 4.457374 0.225836 5.861040 -0.248337 0.097674 -2.225486 4.349639 11.753773 12.542290 0.000000 0.000000 0.000000 -2.695160 -0.058079 1.703298 -0.589732 0.260646 4.421112 -4.578856 -13.706072 13.162849 0.000000 0.000000 0.000000 -4.709320 0.067140 -3.190572 6.175273 -0.638749 -27.049265 -0.250347 -5.466755 31.221838 -4.800278 3.461140 -27.577425 0.000000 0.000000 0.000000 15.917558 -15.935217 2.679657 5.720262 -49.176490 -4.606596 91.234161 -9.178296 -6.883900 0.000000 0.000000 0.000000 -32.305942 22.780495 2.602717 3.860288 45.315368 -3.152783 -95.674262 5.683929 -6.181721 0.000000 0.000000 0.000000 
0.009657 0.957456 0.109577 -1.054269 0.377908 1.595025 4.551673 0.221878 5.915237 -0.419032 0.108034 -2.066394 4.097293 11.318147 12.206658 0.000000 0.000000 0.000000 -2.893268 -0.068741 1.910676 -0.551775 0.258688 4.511554 -4.645104 -13.798569 13.122179 0.000000 0.000000 0.000000 -4.756781 0.061145 -2.666183 6.218352 -0.650602 -27.043785 -0.344403 -5.479307 31.328751 -4.627240 3.381267 -27.367038 0.000000 0.000000 0.000000 15.165290 -15.630827 2.751715 4.534693 -49.744287 -4.327502 92.757544 -10.226214 -8.065188 0.000000 0.000000 0.000000 -31.941631 22.452965 2.611862 4.687334 45.947713 -2.926238 -96.832703 5.769871 -6.231409 0.000000 0.000000 0.000000 
0.008938 0.956638 0.107960 -1.061262 0.653382 1.508299 4.904469 0.187170 5.785369 -0.766154 0.134441 -1.899777 4.084119 11.296521 12.071148 0.000000 0.000000 0.000000 -2.951952 -0.063704 1.840747 -0.342728 0.222883 4.405714 -4.990682 -14.421097 13.392420 0.000000 0.000000 0.000000 -4.931257 0.057588 -2.254220 6.334892 -0.689942 -26.852093 -0.344224 -5.354833 31.442662 -4.484209 3.349494 -26.986963 0.000000 0.000000 0.000000 14.643845 -15.320785 2.804963 4.314014 -50.796051 -4.462515 93.884569 -10.995266 -9.087434 0.000000 0.000000 0.000000 -31.694276 22.137550 2.558553 5.206022 46.502318 -2.731885 -98.059441 4.913070 -5.181327 0.000000 0.000000 0.000000 
0.008186 0.955763 0.105933 -0.951734 0.755424 1.449139 4.984954 0.164655 5.434299 -0.967596 0.147245 -1.687559 4.105180 11.264672 11.673161 0.000000 0.000000 0.000000 -3.128805 -0.042785 1.641410 -0.190440 0.207263 4.579382 -5.152388 -14.687106 13.298960 0.000000 0.000000 0.000000 -5.097429 0.056715 -1.745611 6.384045 -0.702268 -26.819695 -0.362128 -5.295428 31.571089 -4.438188 3.343054 -26.956304 0.000000 0.000000 0.000000 14.123232 -15.121566 2.855154 3.976949 -51.240342 -4.445732 95.311209 -11.416403 -9.773309 0.000000 0.000000 0.000000 -31.275685 22.029827 2.579197 4.951650 47.227565 -2.851361 -99.270064 4.537232 -4.748439 0.000000 0.000000 0.000000 
0.007464 0.954884 0.103948 -0.879071 0.842980 1.491098 5.119613 0.140439 5.134976 -1.169240 0.164467 -1.637298 4.071001 11.174053 11.451521 0.000000 0.000000 0.000000 -3.317765 -0.004767 1.213190 0.176424 0.162023 4.832054 -5.516355 -15.321593 13.258680 0.000000 0.000000 0.000000 -5.098038 0.058210 -1.423865 6.353378 -0.711930 -26.580298 -0.207283 -5.122343 31.631098 -4.434614 3.380784 -26.429984 0.000000 0.000000 0.000000 13.817052 -14.908502 2.881700 3.914251 -51.633040 -4.539361 96.347745 -11.236603 -9.851316 0.000000 0.000000 0.000000 -30.969455 22.062821 2.562541 4.952603 47.465330 -2.812509 -100.854486 4.759146 -4.958528 0.000000 0.000000 0.000000 
0.006998 0.954347 0.102506 -0.759597 0.888066 1.393558 5.038696 0.143849 5.080511 -1.233220 0.175603 -1.863251 3.902925 10.930831 11.557147 0.000000 0.000000 0.000000 -3.563446 -0.007143 1.353280 0.324811 0.125363 4.437291 -5.792557 -15.833767 13.578101 0.000000 0.000000 0.000000 -5.178278 0.058567 -0.909533 6.335730 -0.712803 -26.519521 -0.110153 -4.854839 31.611746 -4.412751 3.418300 -26.416790 0.000000 0.000000 0.000000 13.861534 -14.941323 2.912957 3.501853 -51.570363 -4.435846 97.381346 -11.563114 -10.451841 0.000000 0.000000 0.000000 -30.799303 22.004379 2.523071 5.237892 47.957046 -2.671537 -102.433191 5.010129 -5.139318 0.000000 0.000000 0.000000 
0.006796 0.953895 0.101656 -0.736860 1.070504 1.276795 4.829747 0.154789 5.073010 -1.137107 0.171798 -2.082280 3.737107 10.683021 11.558286 0.000000 0.000000 0.000000 -3.588896 -0.031356 1.673756 0.317208 0.116928 4.190113 -5.977563 -16.162921 13.842791 0.000000 0.000000 0.000000 -5.077485 0.057841 -0.336778 6.177195 -0.682026 -26.461514 -0.061319 -4.753845 31.550642 -4.522134 3.522207 -25.739982 0.000000 0.000000 0.000000 13.476811 -14.819517 2.966527 3.473729 -51.587275 -4.492565 98.761132 -12.296277 -11.591854 0.000000 0.000000 0.000000 -30.182169 22.018098 2.571026 5.360422 47.833774 -2.569302 -103.822714 5.821373 -6.088108 0.000000 0.000000 0.000000 
0.006962 0.953601 0.101161 -0.630416 1.063200 1.341137 4.607950 0.161332 4.928765 -1.206922 0.177854 -2.076742 3.731644 10.655046 11.468840 0.000000 0.000000 0.000000 -3.697538 -0.036274 1.814716 0.202840 0.119564 3.809912 -6.184459 -16.531234 13.938146 0.000000 0.000000 0.000000 -5.011277 0.058705 -0.180273 6.033731 -0.637504 -26.613555 0.005194 -4.652015 31.563360 -4.618662 3.595211 -25.639470 0.000000 0.000000 0.000000 13.405492 -14.931239 3.014112 2.793540 -51.382864 -4.233217 99.634660 -12.805749 -12.297336 0.000000 0.000000 0.000000 -30.322223 22.290994 2.547181 5.898478 47.800572 -2.346659 -104.311576 6.696652 -7.096768 0.000000 0.000000 0.000000 
0.007215 0.953408 0.100783 -0.629922 0.953684 1.699707 4.319000 0.154088 4.483223 -1.060381 0.159943 -1.874091 3.901529 10.855351 11.163533 0.000000 0.000000 0.000000 -3.699469 -0.010276 1.500210 0.033906 0.136290 3.615069 -6.371033 -16.883116 14.265914 0.000000 0.000000 0.000000 -4.899452 0.063786 -0.186755 6.020918 -0.639806 -26.522712 0.024601 -4.507170 31.453652 -4.810102 3.729193 -24.978573 0.000000 0.000000 0.000000 12.750540 -15.253932 3.201282 2.580418 -50.984074 -4.155133 101.059130 -13.640648 -13.561503 0.000000 0.000000 0.000000 -30.133057 22.640137 2.580792 5.975630 47.795105 -2.290968 -105.293837 7.407080 -7.999590 0.000000 0.000000 0.000000 
